<svg id="visual" viewBox="0 0 960 540" width="960" height="540" xmlns="http://www.w3.org/2000/svg" xmlns:xlink="http://www.w3.org/1999/xlink" version="1.1"><path d="M0 331L40 336.2C80 341.3 160 351.7 240 370.3C320 389 400 416 480 419.5C560 423 640 403 720 394.5C800 386 880 389 920 390.5L960 392L960 541L920 541C880 541 800 541 720 541C640 541 560 541 480 541C400 541 320 541 240 541C160 541 80 541 40 541L0 541Z" fill="#a5ccfb"></path><path d="M0 492L40 486C80 480 160 468 240 457.3C320 446.7 400 437.3 480 439.8C560 442.3 640 456.7 720 457.7C800 458.7 880 446.3 920 440.2L960 434L960 541L920 541C880 541 800 541 720 541C640 541 560 541 480 541C400 541 320 541 240 541C160 541 80 541 40 541L0 541Z" fill="#ffffff"></path></svg>