<svg id="visual" viewBox="0 0 960 540" width="960" height="540" xmlns="http://www.w3.org/2000/svg" xmlns:xlink="http://www.w3.org/1999/xlink" version="1.1"><path d="M0 322L40 336.7C80 351.3 160 380.7 240 393.3C320 406 400 402 480 401.2C560 400.3 640 402.7 720 401.5C800 400.3 880 395.7 920 393.3L960 391L960 541L920 541C880 541 800 541 720 541C640 541 560 541 480 541C400 541 320 541 240 541C160 541 80 541 40 541L0 541Z" fill="#a5ccfb"></path><path d="M0 409L40 407.8C80 406.7 160 404.3 240 406C320 407.7 400 413.3 480 410.8C560 408.3 640 397.7 720 404.2C800 410.7 880 434.3 920 446.2L960 458L960 541L920 541C880 541 800 541 720 541C640 541 560 541 480 541C400 541 320 541 240 541C160 541 80 541 40 541L0 541Z" fill="#ffffff"></path></svg>