<svg id="visual" viewBox="0 0 960 540" width="960" height="540" xmlns="http://www.w3.org/2000/svg" xmlns:xlink="http://www.w3.org/1999/xlink" version="1.1"><path d="M0 106L26.7 111.3C53.3 116.7 106.7 127.3 160 127.3C213.3 127.3 266.7 116.7 320 102.5C373.3 88.3 426.7 70.7 480 62.7C533.3 54.7 586.7 56.3 640 70C693.3 83.7 746.7 109.3 800 122.7C853.3 136 906.7 137 933.3 137.5L960 138L960 0L933.3 0C906.7 0 853.3 0 800 0C746.7 0 693.3 0 640 0C586.7 0 533.3 0 480 0C426.7 0 373.3 0 320 0C266.7 0 213.3 0 160 0C106.7 0 53.3 0 26.7 0L0 0Z" fill="#ffffff" stroke-linecap="round" stroke-linejoin="miter"></path></svg>