<?xml version="1.0" standalone="no"?>
<svg xmlns:xlink="http://www.w3.org/1999/xlink" id="wave" style="transform:rotate(0deg); transition: 0.3s" viewBox="0 0 1440 200" version="1.1" xmlns="http://www.w3.org/2000/svg"><defs><linearGradient id="sw-gradient-0" x1="0" x2="0" y1="1" y2="0"><stop stop-color="rgba(47, 105, 177, 1)" offset="0%"/><stop stop-color="rgba(47, 105, 177, 1)" offset="100%"/></linearGradient></defs><path style="transform:translate(0, 0px); opacity:1" fill="url(#sw-gradient-0)" d="M0,20L80,40C160,60,320,100,480,110C640,120,800,100,960,86.7C1120,73,1280,67,1440,83.3C1600,100,1760,140,1920,143.3C2080,147,2240,113,2400,93.3C2560,73,2720,67,2880,76.7C3040,87,3200,113,3360,103.3C3520,93,3680,47,3840,50C4000,53,4160,107,4320,123.3C4480,140,4640,120,4800,110C4960,100,5120,100,5280,83.3C5440,67,5600,33,5760,40C5920,47,6080,93,6240,96.7C6400,100,6560,60,6720,63.3C6880,67,7040,113,7200,120C7360,127,7520,93,7680,96.7C7840,100,8000,140,8160,150C8320,160,8480,140,8640,110C8800,80,8960,40,9120,23.3C9280,7,9440,13,9600,40C9760,67,9920,113,10080,130C10240,147,10400,133,10560,120C10720,107,10880,93,11040,100C11200,107,11360,133,11440,146.7L11520,160L11520,200L11440,200C11360,200,11200,200,11040,200C10880,200,10720,200,10560,200C10400,200,10240,200,10080,200C9920,200,9760,200,9600,200C9440,200,9280,200,9120,200C8960,200,8800,200,8640,200C8480,200,8320,200,8160,200C8000,200,7840,200,7680,200C7520,200,7360,200,7200,200C7040,200,6880,200,6720,200C6560,200,6400,200,6240,200C6080,200,5920,200,5760,200C5600,200,5440,200,5280,200C5120,200,4960,200,4800,200C4640,200,4480,200,4320,200C4160,200,4000,200,3840,200C3680,200,3520,200,3360,200C3200,200,3040,200,2880,200C2720,200,2560,200,2400,200C2240,200,2080,200,1920,200C1760,200,1600,200,1440,200C1280,200,1120,200,960,200C800,200,640,200,480,200C320,200,160,200,80,200L0,200Z"/></svg>