<svg id="visual" viewBox="0 0 960 540" width="960" height="540" xmlns="http://www.w3.org/2000/svg" xmlns:xlink="http://www.w3.org/1999/xlink" version="1.1"><path d="M0 42L26.7 46.2C53.3 50.3 106.7 58.7 160 58.2C213.3 57.7 266.7 48.3 320 43.5C373.3 38.7 426.7 38.3 480 39.5C533.3 40.7 586.7 43.3 640 48C693.3 52.7 746.7 59.3 800 58.5C853.3 57.7 906.7 49.3 933.3 45.2L960 41L960 0L933.3 0C906.7 0 853.3 0 800 0C746.7 0 693.3 0 640 0C586.7 0 533.3 0 480 0C426.7 0 373.3 0 320 0C266.7 0 213.3 0 160 0C106.7 0 53.3 0 26.7 0L0 0Z" fill="#ffffff" stroke-linecap="round" stroke-linejoin="miter"></path></svg>