<?xml version="1.0" standalone="no"?>
<svg xmlns:xlink="http://www.w3.org/1999/xlink" id="wave" style="transform:rotate(0deg); transition: 0.3s" viewBox="0 0 1440 100" version="1.1" xmlns="http://www.w3.org/2000/svg"><defs><linearGradient id="sw-gradient-0" x1="0" x2="0" y1="1" y2="0"><stop stop-color="rgba(226, 226, 226, 0.687)" offset="0%"/><stop stop-color="rgba(226, 226, 226, 0.687)" offset="100%"/></linearGradient></defs><path style="transform:translate(0, 0px); opacity:1" fill="url(#sw-gradient-0)" d="M0,0L40,6.7C80,13,160,27,240,41.7C320,57,400,73,480,81.7C560,90,640,90,720,86.7C800,83,880,77,960,65C1040,53,1120,37,1200,31.7C1280,27,1360,33,1440,45C1520,57,1600,73,1680,76.7C1760,80,1840,70,1920,65C2000,60,2080,60,2160,65C2240,70,2320,80,2400,75C2480,70,2560,50,2640,45C2720,40,2800,50,2880,55C2960,60,3040,60,3120,61.7C3200,63,3280,67,3360,70C3440,73,3520,77,3600,73.3C3680,70,3760,60,3840,53.3C3920,47,4000,43,4080,48.3C4160,53,4240,67,4320,71.7C4400,77,4480,73,4560,63.3C4640,53,4720,37,4800,40C4880,43,4960,67,5040,75C5120,83,5200,77,5280,65C5360,53,5440,37,5520,28.3C5600,20,5680,20,5720,20L5760,20L5760,100L5720,100C5680,100,5600,100,5520,100C5440,100,5360,100,5280,100C5200,100,5120,100,5040,100C4960,100,4880,100,4800,100C4720,100,4640,100,4560,100C4480,100,4400,100,4320,100C4240,100,4160,100,4080,100C4000,100,3920,100,3840,100C3760,100,3680,100,3600,100C3520,100,3440,100,3360,100C3280,100,3200,100,3120,100C3040,100,2960,100,2880,100C2800,100,2720,100,2640,100C2560,100,2480,100,2400,100C2320,100,2240,100,2160,100C2080,100,2000,100,1920,100C1840,100,1760,100,1680,100C1600,100,1520,100,1440,100C1360,100,1280,100,1200,100C1120,100,1040,100,960,100C880,100,800,100,720,100C640,100,560,100,480,100C400,100,320,100,240,100C160,100,80,100,40,100L0,100Z"/></svg>