<svg id="visual" viewBox="0 0 960 540" width="960" height="540" xmlns="http://www.w3.org/2000/svg" xmlns:xlink="http://www.w3.org/1999/xlink" version="1.1"><rect x="0" y="0" width="960" height="540" fill="#fff"></rect><path d="M0 316L22.8 309.5C45.7 303 91.3 290 137 278.7C182.7 267.3 228.3 257.7 274 264.5C319.7 271.3 365.3 294.7 411.2 297C457 299.3 503 280.7 548.8 281.2C594.7 281.7 640.3 301.3 686 299.7C731.7 298 777.3 275 823 264.5C868.7 254 914.3 256 937.2 257L960 258L960 541L937.2 541C914.3 541 868.7 541 823 541C777.3 541 731.7 541 686 541C640.3 541 594.7 541 548.8 541C503 541 457 541 411.2 541C365.3 541 319.7 541 274 541C228.3 541 182.7 541 137 541C91.3 541 45.7 541 22.8 541L0 541Z" fill="#ffffff"></path><path d="M0 331L22.8 330.7C45.7 330.3 91.3 329.7 137 338.8C182.7 348 228.3 367 274 369.3C319.7 371.7 365.3 357.3 411.2 362.5C457 367.7 503 392.3 548.8 391C594.7 389.7 640.3 362.3 686 356.5C731.7 350.7 777.3 366.3 823 377C868.7 387.7 914.3 393.3 937.2 396.2L960 399L960 541L937.2 541C914.3 541 868.7 541 823 541C777.3 541 731.7 541 686 541C640.3 541 594.7 541 548.8 541C503 541 457 541 411.2 541C365.3 541 319.7 541 274 541C228.3 541 182.7 541 137 541C91.3 541 45.7 541 22.8 541L0 541Z" fill="#e3eefe"></path><path d="M0 400L22.8 395C45.7 390 91.3 380 137 379.3C182.7 378.7 228.3 387.3 274 402C319.7 416.7 365.3 437.3 411.2 445.8C457 454.3 503 450.7 548.8 437.3C594.7 424 640.3 401 686 399.2C731.7 397.3 777.3 416.7 823 416.5C868.7 416.3 914.3 396.7 937.2 386.8L960 377L960 541L937.2 541C914.3 541 868.7 541 823 541C777.3 541 731.7 541 686 541C640.3 541 594.7 541 548.8 541C503 541 457 541 411.2 541C365.3 541 319.7 541 274 541C228.3 541 182.7 541 137 541C91.3 541 45.7 541 22.8 541L0 541Z" fill="#c5ddfc"></path><path d="M0 443L22.8 455.3C45.7 467.7 91.3 492.3 137 492.8C182.7 493.3 228.3 469.7 274 465.3C319.7 461 365.3 476 411.2 482.5C457 489 503 487 548.8 478.7C594.7 470.3 640.3 455.7 686 454.7C731.7 453.7 777.3 466.3 823 470.8C868.7 475.3 914.3 471.7 937.2 469.8L960 468L960 541L937.2 541C914.3 541 868.7 541 823 541C777.3 541 731.7 541 686 541C640.3 541 594.7 541 548.8 541C503 541 457 541 411.2 541C365.3 541 319.7 541 274 541C228.3 541 182.7 541 137 541C91.3 541 45.7 541 22.8 541L0 541Z" fill="#a5ccfb"></path></svg>