<svg id="visual" viewBox="0 0 960 540" width="960" height="540" xmlns="http://www.w3.org/2000/svg" xmlns:xlink="http://www.w3.org/1999/xlink" version="1.1"><rect x="0" y="0" width="960" height="540" fill="#fff"></rect><path d="M0 390L22.8 385.8C45.7 381.7 91.3 373.3 137 365.8C182.7 358.3 228.3 351.7 274 356.2C319.7 360.7 365.3 376.3 411.2 377.8C457 379.3 503 366.7 548.8 366.8C594.7 367 640.3 380 686 379C731.7 378 777.3 363 823 356.2C868.7 349.3 914.3 350.7 937.2 351.3L960 352L960 541L937.2 541C914.3 541 868.7 541 823 541C777.3 541 731.7 541 686 541C640.3 541 594.7 541 548.8 541C503 541 457 541 411.2 541C365.3 541 319.7 541 274 541C228.3 541 182.7 541 137 541C91.3 541 45.7 541 22.8 541L0 541Z" fill="#ffffff"></path><path d="M0 400L22.8 399.8C45.7 399.7 91.3 399.3 137 405.5C182.7 411.7 228.3 424.3 274 425.8C319.7 427.3 365.3 417.7 411.2 421C457 424.3 503 440.7 548.8 439.8C594.7 439 640.3 421 686 417.2C731.7 413.3 777.3 423.7 823 430.7C868.7 437.7 914.3 441.3 937.2 443.2L960 445L960 541L937.2 541C914.3 541 868.7 541 823 541C777.3 541 731.7 541 686 541C640.3 541 594.7 541 548.8 541C503 541 457 541 411.2 541C365.3 541 319.7 541 274 541C228.3 541 182.7 541 137 541C91.3 541 45.7 541 22.8 541L0 541Z" fill="#e3eefe"></path><path d="M0 447L22.8 443.5C45.7 440 91.3 433 137 432.3C182.7 431.7 228.3 437.3 274 447.2C319.7 457 365.3 471 411.2 476.8C457 482.7 503 480.3 548.8 471.5C594.7 462.7 640.3 447.3 686 446C731.7 444.7 777.3 457.3 823 457.2C868.7 457 914.3 444 937.2 437.5L960 431L960 541L937.2 541C914.3 541 868.7 541 823 541C777.3 541 731.7 541 686 541C640.3 541 594.7 541 548.8 541C503 541 457 541 411.2 541C365.3 541 319.7 541 274 541C228.3 541 182.7 541 137 541C91.3 541 45.7 541 22.8 541L0 541Z" fill="#c5ddfc"></path><path d="M0 475L22.8 483.2C45.7 491.3 91.3 507.7 137 508C182.7 508.3 228.3 492.7 274 489.8C319.7 487 365.3 497 411.2 501.3C457 505.7 503 504.3 548.8 498.8C594.7 493.3 640.3 483.7 686 483C731.7 482.3 777.3 490.7 823 493.7C868.7 496.7 914.3 494.3 937.2 493.2L960 492L960 541L937.2 541C914.3 541 868.7 541 823 541C777.3 541 731.7 541 686 541C640.3 541 594.7 541 548.8 541C503 541 457 541 411.2 541C365.3 541 319.7 541 274 541C228.3 541 182.7 541 137 541C91.3 541 45.7 541 22.8 541L0 541Z" fill="#a5ccfb"></path></svg>