<svg id="visual" viewBox="0 0 960 540" width="960" height="540" xmlns="http://www.w3.org/2000/svg" xmlns:xlink="http://www.w3.org/1999/xlink" version="1.1"><rect x="0" y="0" width="960" height="540" fill="#fff"></rect><path d="M0 108L22.8 112.8C45.7 117.7 91.3 127.3 137 152.5C182.7 177.7 228.3 218.3 274 203.5C319.7 188.7 365.3 118.3 411.2 101.7C457 85 503 122 548.8 145C594.7 168 640.3 177 686 191.8C731.7 206.7 777.3 227.3 823 231.3C868.7 235.3 914.3 222.7 937.2 216.3L960 210L960 541L937.2 541C914.3 541 868.7 541 823 541C777.3 541 731.7 541 686 541C640.3 541 594.7 541 548.8 541C503 541 457 541 411.2 541C365.3 541 319.7 541 274 541C228.3 541 182.7 541 137 541C91.3 541 45.7 541 22.8 541L0 541Z" fill="#ffffff"></path><path d="M0 159L22.8 162.7C45.7 166.3 91.3 173.7 137 203.8C182.7 234 228.3 287 274 295C319.7 303 365.3 266 411.2 243.7C457 221.3 503 213.7 548.8 224C594.7 234.3 640.3 262.7 686 279C731.7 295.3 777.3 299.7 823 285.3C868.7 271 914.3 238 937.2 221.5L960 205L960 541L937.2 541C914.3 541 868.7 541 823 541C777.3 541 731.7 541 686 541C640.3 541 594.7 541 548.8 541C503 541 457 541 411.2 541C365.3 541 319.7 541 274 541C228.3 541 182.7 541 137 541C91.3 541 45.7 541 22.8 541L0 541Z" fill="#e3eefe"></path><path d="M0 402L22.8 381.8C45.7 361.7 91.3 321.3 137 320.3C182.7 319.3 228.3 357.7 274 357.8C319.7 358 365.3 320 411.2 300.2C457 280.3 503 278.7 548.8 283C594.7 287.3 640.3 297.7 686 316.8C731.7 336 777.3 364 823 376.7C868.7 389.3 914.3 386.7 937.2 385.3L960 384L960 541L937.2 541C914.3 541 868.7 541 823 541C777.3 541 731.7 541 686 541C640.3 541 594.7 541 548.8 541C503 541 457 541 411.2 541C365.3 541 319.7 541 274 541C228.3 541 182.7 541 137 541C91.3 541 45.7 541 22.8 541L0 541Z" fill="#c5ddfc"></path><path d="M0 364L22.8 363C45.7 362 91.3 360 137 368.3C182.7 376.7 228.3 395.3 274 408.8C319.7 422.3 365.3 430.7 411.2 423C457 415.3 503 391.7 548.8 393.3C594.7 395 640.3 422 686 426.2C731.7 430.3 777.3 411.7 823 416.7C868.7 421.7 914.3 450.3 937.2 464.7L960 479L960 541L937.2 541C914.3 541 868.7 541 823 541C777.3 541 731.7 541 686 541C640.3 541 594.7 541 548.8 541C503 541 457 541 411.2 541C365.3 541 319.7 541 274 541C228.3 541 182.7 541 137 541C91.3 541 45.7 541 22.8 541L0 541Z" fill="#a5ccfb"></path></svg>