<svg id="visual" viewBox="0 0 960 540" width="960" height="540" xmlns="http://www.w3.org/2000/svg" xmlns:xlink="http://www.w3.org/1999/xlink" version="1.1"><rect x="0" y="0" width="960" height="540" fill="#fff"></rect><path d="M0 168L22.8 157.2C45.7 146.3 91.3 124.7 137 105.8C182.7 87 228.3 71 274 82.3C319.7 93.7 365.3 132.3 411.2 136C457 139.7 503 108.3 548.8 109C594.7 109.7 640.3 142.3 686 139.7C731.7 137 777.3 99 823 81.5C868.7 64 914.3 67 937.2 68.5L960 70L960 541L937.2 541C914.3 541 868.7 541 823 541C777.3 541 731.7 541 686 541C640.3 541 594.7 541 548.8 541C503 541 457 541 411.2 541C365.3 541 319.7 541 274 541C228.3 541 182.7 541 137 541C91.3 541 45.7 541 22.8 541L0 541Z" fill="#ffffff"></path><path d="M0 192L22.8 191.5C45.7 191 91.3 190 137 205.5C182.7 221 228.3 253 274 256.8C319.7 260.7 365.3 236.3 411.2 244.7C457 253 503 294 548.8 291.8C594.7 289.7 640.3 244.3 686 234.7C731.7 225 777.3 251 823 268.7C868.7 286.3 914.3 295.7 937.2 300.3L960 305L960 541L937.2 541C914.3 541 868.7 541 823 541C777.3 541 731.7 541 686 541C640.3 541 594.7 541 548.8 541C503 541 457 541 411.2 541C365.3 541 319.7 541 274 541C228.3 541 182.7 541 137 541C91.3 541 45.7 541 22.8 541L0 541Z" fill="#e3eefe"></path><path d="M0 308L22.8 299.5C45.7 291 91.3 274 137 272.7C182.7 271.3 228.3 285.7 274 310.2C319.7 334.7 365.3 369.3 411.2 383.7C457 398 503 392 548.8 369.8C594.7 347.7 640.3 309.3 686 306.3C731.7 303.3 777.3 335.7 823 335.3C868.7 335 914.3 302 937.2 285.5L960 269L960 541L937.2 541C914.3 541 868.7 541 823 541C777.3 541 731.7 541 686 541C640.3 541 594.7 541 548.8 541C503 541 457 541 411.2 541C365.3 541 319.7 541 274 541C228.3 541 182.7 541 137 541C91.3 541 45.7 541 22.8 541L0 541Z" fill="#c5ddfc"></path><path d="M0 379L22.8 399.5C45.7 420 91.3 461 137 461.8C182.7 462.7 228.3 423.3 274 416.2C319.7 409 365.3 434 411.2 444.8C457 455.7 503 452.3 548.8 438.3C594.7 424.3 640.3 399.7 686 398.2C731.7 396.7 777.3 418.3 823 426C868.7 433.7 914.3 427.3 937.2 424.2L960 421L960 541L937.2 541C914.3 541 868.7 541 823 541C777.3 541 731.7 541 686 541C640.3 541 594.7 541 548.8 541C503 541 457 541 411.2 541C365.3 541 319.7 541 274 541C228.3 541 182.7 541 137 541C91.3 541 45.7 541 22.8 541L0 541Z" fill="#a5ccfb"></path></svg>