<svg id="visual" viewBox="0 0 960 540" width="960" height="540" xmlns="http://www.w3.org/2000/svg" xmlns:xlink="http://www.w3.org/1999/xlink" version="1.1"><rect x="0" y="0" width="960" height="540" fill="#fff"></rect><path d="M0 353L22.8 347.7C45.7 342.3 91.3 331.7 137 322.3C182.7 313 228.3 305 274 310.7C319.7 316.3 365.3 335.7 411.2 337.5C457 339.3 503 323.7 548.8 324C594.7 324.3 640.3 340.7 686 339.3C731.7 338 777.3 319 823 310.3C868.7 301.7 914.3 303.3 937.2 304.2L960 305L960 541L937.2 541C914.3 541 868.7 541 823 541C777.3 541 731.7 541 686 541C640.3 541 594.7 541 548.8 541C503 541 457 541 411.2 541C365.3 541 319.7 541 274 541C228.3 541 182.7 541 137 541C91.3 541 45.7 541 22.8 541L0 541Z" fill="#ffffff"></path><path d="M0 365L22.8 364.8C45.7 364.7 91.3 364.3 137 372.2C182.7 380 228.3 396 274 397.8C319.7 399.7 365.3 387.3 411.2 391.5C457 395.7 503 416.3 548.8 415.3C594.7 414.3 640.3 391.7 686 386.8C731.7 382 777.3 395 823 403.8C868.7 412.7 914.3 417.3 937.2 419.7L960 422L960 541L937.2 541C914.3 541 868.7 541 823 541C777.3 541 731.7 541 686 541C640.3 541 594.7 541 548.8 541C503 541 457 541 411.2 541C365.3 541 319.7 541 274 541C228.3 541 182.7 541 137 541C91.3 541 45.7 541 22.8 541L0 541Z" fill="#e3eefe"></path><path d="M0 424L22.8 419.7C45.7 415.3 91.3 406.7 137 406C182.7 405.3 228.3 412.7 274 425C319.7 437.3 365.3 454.7 411.2 461.7C457 468.7 503 465.3 548.8 454.2C594.7 443 640.3 424 686 422.5C731.7 421 777.3 437 823 436.8C868.7 436.7 914.3 420.3 937.2 412.2L960 404L960 541L937.2 541C914.3 541 868.7 541 823 541C777.3 541 731.7 541 686 541C640.3 541 594.7 541 548.8 541C503 541 457 541 411.2 541C365.3 541 319.7 541 274 541C228.3 541 182.7 541 137 541C91.3 541 45.7 541 22.8 541L0 541Z" fill="#c5ddfc"></path><path d="M0 459L22.8 469.2C45.7 479.3 91.3 499.7 137 500C182.7 500.3 228.3 480.7 274 477.2C319.7 473.7 365.3 486.3 411.2 491.8C457 497.3 503 495.7 548.8 488.7C594.7 481.7 640.3 469.3 686 468.5C731.7 467.7 777.3 478.3 823 482.2C868.7 486 914.3 483 937.2 481.5L960 480L960 541L937.2 541C914.3 541 868.7 541 823 541C777.3 541 731.7 541 686 541C640.3 541 594.7 541 548.8 541C503 541 457 541 411.2 541C365.3 541 319.7 541 274 541C228.3 541 182.7 541 137 541C91.3 541 45.7 541 22.8 541L0 541Z" fill="#a5ccfb"></path></svg>