<svg id="visual" viewBox="0 0 960 540" width="960" height="540" xmlns="http://www.w3.org/2000/svg" xmlns:xlink="http://www.w3.org/1999/xlink" version="1.1"><rect x="0" y="0" width="960" height="540" fill="#fff"></rect><path d="M0 205L22.8 195.3C45.7 185.7 91.3 166.3 137 149.3C182.7 132.3 228.3 117.7 274 127.8C319.7 138 365.3 173 411.2 176.3C457 179.7 503 151.3 548.8 152C594.7 152.7 640.3 182.3 686 180C731.7 177.7 777.3 143.3 823 127.5C868.7 111.7 914.3 114.3 937.2 115.7L960 117L960 541L937.2 541C914.3 541 868.7 541 823 541C777.3 541 731.7 541 686 541C640.3 541 594.7 541 548.8 541C503 541 457 541 411.2 541C365.3 541 319.7 541 274 541C228.3 541 182.7 541 137 541C91.3 541 45.7 541 22.8 541L0 541Z" fill="#ffffff"></path><path d="M0 227L22.8 226.5C45.7 226 91.3 225 137 238.8C182.7 252.7 228.3 281.3 274 284.8C319.7 288.3 365.3 266.7 411.2 274.2C457 281.7 503 318.3 548.8 316.3C594.7 314.3 640.3 273.7 686 265C731.7 256.3 777.3 279.7 823 295.5C868.7 311.3 914.3 319.7 937.2 323.8L960 328L960 541L937.2 541C914.3 541 868.7 541 823 541C777.3 541 731.7 541 686 541C640.3 541 594.7 541 548.8 541C503 541 457 541 411.2 541C365.3 541 319.7 541 274 541C228.3 541 182.7 541 137 541C91.3 541 45.7 541 22.8 541L0 541Z" fill="#e3eefe"></path><path d="M0 331L22.8 323.3C45.7 315.7 91.3 300.3 137 299.2C182.7 298 228.3 311 274 333.2C319.7 355.3 365.3 386.7 411.2 399.5C457 412.3 503 406.7 548.8 386.7C594.7 366.7 640.3 332.3 686 329.7C731.7 327 777.3 356 823 355.7C868.7 355.3 914.3 325.7 937.2 310.8L960 296L960 541L937.2 541C914.3 541 868.7 541 823 541C777.3 541 731.7 541 686 541C640.3 541 594.7 541 548.8 541C503 541 457 541 411.2 541C365.3 541 319.7 541 274 541C228.3 541 182.7 541 137 541C91.3 541 45.7 541 22.8 541L0 541Z" fill="#c5ddfc"></path><path d="M0 395L22.8 413.5C45.7 432 91.3 469 137 469.7C182.7 470.3 228.3 434.7 274 428.2C319.7 421.7 365.3 444.3 411.2 454.2C457 464 503 461 548.8 448.5C594.7 436 640.3 414 686 412.7C731.7 411.3 777.3 430.7 823 437.5C868.7 444.3 914.3 438.7 937.2 435.8L960 433L960 541L937.2 541C914.3 541 868.7 541 823 541C777.3 541 731.7 541 686 541C640.3 541 594.7 541 548.8 541C503 541 457 541 411.2 541C365.3 541 319.7 541 274 541C228.3 541 182.7 541 137 541C91.3 541 45.7 541 22.8 541L0 541Z" fill="#a5ccfb"></path></svg>