<svg id="visual" viewBox="0 0 960 540" width="960" height="540" xmlns="http://www.w3.org/2000/svg" xmlns:xlink="http://www.w3.org/1999/xlink" version="1.1"><rect x="0" y="0" width="960" height="540" fill="#fff"></rect><path d="M0 296L22.8 304.7C45.7 313.3 91.3 330.7 137 345.7C182.7 360.7 228.3 373.3 274 364.2C319.7 355 365.3 324 411.2 321.2C457 318.3 503 343.7 548.8 343.2C594.7 342.7 640.3 316.3 686 318.5C731.7 320.7 777.3 351.3 823 365.3C868.7 379.3 914.3 376.7 937.2 375.3L960 374L960 0L937.2 0C914.3 0 868.7 0 823 0C777.3 0 731.7 0 686 0C640.3 0 594.7 0 548.8 0C503 0 457 0 411.2 0C365.3 0 319.7 0 274 0C228.3 0 182.7 0 137 0C91.3 0 45.7 0 22.8 0L0 0Z" fill="#ffffff"></path><path d="M0 277L22.8 277.3C45.7 277.7 91.3 278.3 137 266C182.7 253.7 228.3 228.3 274 225.3C319.7 222.3 365.3 241.7 411.2 234.8C457 228 503 195 548.8 196.7C594.7 198.3 640.3 234.7 686 242.5C731.7 250.3 777.3 229.7 823 215.5C868.7 201.3 914.3 193.7 937.2 189.8L960 186L960 0L937.2 0C914.3 0 868.7 0 823 0C777.3 0 731.7 0 686 0C640.3 0 594.7 0 548.8 0C503 0 457 0 411.2 0C365.3 0 319.7 0 274 0C228.3 0 182.7 0 137 0C91.3 0 45.7 0 22.8 0L0 0Z" fill="#e3eefe"></path><path d="M0 184L22.8 190.7C45.7 197.3 91.3 210.7 137 211.7C182.7 212.7 228.3 201.3 274 181.8C319.7 162.3 365.3 134.7 411.2 123.2C457 111.7 503 116.3 548.8 134C594.7 151.7 640.3 182.3 686 184.8C731.7 187.3 777.3 161.7 823 162C868.7 162.3 914.3 188.7 937.2 201.8L960 215L960 0L937.2 0C914.3 0 868.7 0 823 0C777.3 0 731.7 0 686 0C640.3 0 594.7 0 548.8 0C503 0 457 0 411.2 0C365.3 0 319.7 0 274 0C228.3 0 182.7 0 137 0C91.3 0 45.7 0 22.8 0L0 0Z" fill="#c5ddfc"></path><path d="M0 127L22.8 110.7C45.7 94.3 91.3 61.7 137 61C182.7 60.3 228.3 91.7 274 97.3C319.7 103 365.3 83 411.2 74.3C457 65.7 503 68.3 548.8 79.5C594.7 90.7 640.3 110.3 686 111.5C731.7 112.7 777.3 95.3 823 89.2C868.7 83 914.3 88 937.2 90.5L960 93L960 0L937.2 0C914.3 0 868.7 0 823 0C777.3 0 731.7 0 686 0C640.3 0 594.7 0 548.8 0C503 0 457 0 411.2 0C365.3 0 319.7 0 274 0C228.3 0 182.7 0 137 0C91.3 0 45.7 0 22.8 0L0 0Z" fill="#a5ccfb"></path></svg>