<svg id="visual" viewBox="0 0 960 540" width="960" height="540" xmlns="http://www.w3.org/2000/svg" xmlns:xlink="http://www.w3.org/1999/xlink" version="1.1"><rect x="0" y="0" width="960" height="540" fill="#fff"></rect><path d="M0 185L22.8 190.3C45.7 195.7 91.3 206.3 137 215.7C182.7 225 228.3 233 274 227.3C319.7 221.7 365.3 202.3 411.2 200.5C457 198.7 503 214.3 548.8 214C594.7 213.7 640.3 197.3 686 198.7C731.7 200 777.3 219 823 227.7C868.7 236.3 914.3 234.7 937.2 233.8L960 233L960 0L937.2 0C914.3 0 868.7 0 823 0C777.3 0 731.7 0 686 0C640.3 0 594.7 0 548.8 0C503 0 457 0 411.2 0C365.3 0 319.7 0 274 0C228.3 0 182.7 0 137 0C91.3 0 45.7 0 22.8 0L0 0Z" fill="#ffffff"></path><path d="M0 173L22.8 173.2C45.7 173.3 91.3 173.7 137 165.8C182.7 158 228.3 142 274 140.2C319.7 138.3 365.3 150.7 411.2 146.5C457 142.3 503 121.7 548.8 122.7C594.7 123.7 640.3 146.3 686 151.2C731.7 156 777.3 143 823 134.2C868.7 125.3 914.3 120.7 937.2 118.3L960 116L960 0L937.2 0C914.3 0 868.7 0 823 0C777.3 0 731.7 0 686 0C640.3 0 594.7 0 548.8 0C503 0 457 0 411.2 0C365.3 0 319.7 0 274 0C228.3 0 182.7 0 137 0C91.3 0 45.7 0 22.8 0L0 0Z" fill="#e3eefe"></path><path d="M0 114L22.8 118.3C45.7 122.7 91.3 131.3 137 132C182.7 132.7 228.3 125.3 274 113C319.7 100.7 365.3 83.3 411.2 76.3C457 69.3 503 72.7 548.8 83.8C594.7 95 640.3 114 686 115.5C731.7 117 777.3 101 823 101.2C868.7 101.3 914.3 117.7 937.2 125.8L960 134L960 0L937.2 0C914.3 0 868.7 0 823 0C777.3 0 731.7 0 686 0C640.3 0 594.7 0 548.8 0C503 0 457 0 411.2 0C365.3 0 319.7 0 274 0C228.3 0 182.7 0 137 0C91.3 0 45.7 0 22.8 0L0 0Z" fill="#c5ddfc"></path><path d="M0 79L22.8 68.8C45.7 58.7 91.3 38.3 137 38C182.7 37.7 228.3 57.3 274 60.8C319.7 64.3 365.3 51.7 411.2 46.2C457 40.7 503 42.3 548.8 49.3C594.7 56.3 640.3 68.7 686 69.5C731.7 70.3 777.3 59.7 823 55.8C868.7 52 914.3 55 937.2 56.5L960 58L960 0L937.2 0C914.3 0 868.7 0 823 0C777.3 0 731.7 0 686 0C640.3 0 594.7 0 548.8 0C503 0 457 0 411.2 0C365.3 0 319.7 0 274 0C228.3 0 182.7 0 137 0C91.3 0 45.7 0 22.8 0L0 0Z" fill="#a5ccfb"></path></svg>