<svg id="visual" viewBox="0 0 960 540" width="960" height="540" xmlns="http://www.w3.org/2000/svg" xmlns:xlink="http://www.w3.org/1999/xlink" version="1.1"><rect x="0" y="0" width="960" height="540" fill="#fff"></rect><path d="M0 148L22.8 152.2C45.7 156.3 91.3 164.7 137 172.2C182.7 179.7 228.3 186.3 274 181.8C319.7 177.3 365.3 161.7 411.2 160.2C457 158.7 503 171.3 548.8 171.2C594.7 171 640.3 158 686 159C731.7 160 777.3 175 823 181.8C868.7 188.7 914.3 187.3 937.2 186.7L960 186L960 0L937.2 0C914.3 0 868.7 0 823 0C777.3 0 731.7 0 686 0C640.3 0 594.7 0 548.8 0C503 0 457 0 411.2 0C365.3 0 319.7 0 274 0C228.3 0 182.7 0 137 0C91.3 0 45.7 0 22.8 0L0 0Z" fill="#ffffff"></path><path d="M0 138L22.8 138.2C45.7 138.3 91.3 138.7 137 132.5C182.7 126.3 228.3 113.7 274 112.2C319.7 110.7 365.3 120.3 411.2 117C457 113.7 503 97.3 548.8 98.2C594.7 99 640.3 117 686 120.8C731.7 124.7 777.3 114.3 823 107.3C868.7 100.3 914.3 96.7 937.2 94.8L960 93L960 0L937.2 0C914.3 0 868.7 0 823 0C777.3 0 731.7 0 686 0C640.3 0 594.7 0 548.8 0C503 0 457 0 411.2 0C365.3 0 319.7 0 274 0C228.3 0 182.7 0 137 0C91.3 0 45.7 0 22.8 0L0 0Z" fill="#e3eefe"></path><path d="M0 91L22.8 94.5C45.7 98 91.3 105 137 105.7C182.7 106.3 228.3 100.7 274 90.8C319.7 81 365.3 67 411.2 61.2C457 55.3 503 57.7 548.8 66.5C594.7 75.3 640.3 90.7 686 92C731.7 93.3 777.3 80.7 823 80.8C868.7 81 914.3 94 937.2 100.5L960 107L960 0L937.2 0C914.3 0 868.7 0 823 0C777.3 0 731.7 0 686 0C640.3 0 594.7 0 548.8 0C503 0 457 0 411.2 0C365.3 0 319.7 0 274 0C228.3 0 182.7 0 137 0C91.3 0 45.7 0 22.8 0L0 0Z" fill="#c5ddfc"></path><path d="M0 63L22.8 54.8C45.7 46.7 91.3 30.3 137 30C182.7 29.7 228.3 45.3 274 48.2C319.7 51 365.3 41 411.2 36.7C457 32.3 503 33.7 548.8 39.2C594.7 44.7 640.3 54.3 686 55C731.7 55.7 777.3 47.3 823 44.3C868.7 41.3 914.3 43.7 937.2 44.8L960 46L960 0L937.2 0C914.3 0 868.7 0 823 0C777.3 0 731.7 0 686 0C640.3 0 594.7 0 548.8 0C503 0 457 0 411.2 0C365.3 0 319.7 0 274 0C228.3 0 182.7 0 137 0C91.3 0 45.7 0 22.8 0L0 0Z" fill="#a5ccfb"></path></svg>