<svg id="visual" viewBox="0 0 960 540" width="960" height="540" xmlns="http://www.w3.org/2000/svg" xmlns:xlink="http://www.w3.org/1999/xlink" version="1.1"><rect x="0" y="0" width="960" height="540" fill="#fff"></rect><path d="M0 401L53.3 392.7C106.7 384.3 213.3 367.7 320 379.3C426.7 391 533.3 431 640 445.3C746.7 459.7 853.3 448.3 906.7 442.7L960 437L960 0L906.7 0C853.3 0 746.7 0 640 0C533.3 0 426.7 0 320 0C213.3 0 106.7 0 53.3 0L0 0Z" fill="#ffffff"></path><path d="M0 264L53.3 270.2C106.7 276.3 213.3 288.7 320 286.7C426.7 284.7 533.3 268.3 640 268.8C746.7 269.3 853.3 286.7 906.7 295.3L960 304L960 0L906.7 0C853.3 0 746.7 0 640 0C533.3 0 426.7 0 320 0C213.3 0 106.7 0 53.3 0L0 0Z" fill="#e3eefe"></path><path d="M0 281L53.3 258.3C106.7 235.7 213.3 190.3 320 169.8C426.7 149.3 533.3 153.7 640 162.7C746.7 171.7 853.3 185.3 906.7 192.2L960 199L960 0L906.7 0C853.3 0 746.7 0 640 0C533.3 0 426.7 0 320 0C213.3 0 106.7 0 53.3 0L0 0Z" fill="#c5ddfc"></path><path d="M0 49L53.3 67.8C106.7 86.7 213.3 124.3 320 121C426.7 117.7 533.3 73.3 640 59.5C746.7 45.7 853.3 62.3 906.7 70.7L960 79L960 0L906.7 0C853.3 0 746.7 0 640 0C533.3 0 426.7 0 320 0C213.3 0 106.7 0 53.3 0L0 0Z" fill="#a5ccfb"></path></svg>