<svg id="visual" viewBox="0 0 960 540" width="960" height="540" xmlns="http://www.w3.org/2000/svg" xmlns:xlink="http://www.w3.org/1999/xlink" version="1.1"><rect x="0" y="0" width="960" height="540" fill="#fff"></rect><path d="M0 429L53.3 432.8C106.7 436.7 213.3 444.3 320 421C426.7 397.7 533.3 343.3 640 339.2C746.7 335 853.3 381 906.7 404L960 427L960 0L906.7 0C853.3 0 746.7 0 640 0C533.3 0 426.7 0 320 0C213.3 0 106.7 0 53.3 0L0 0Z" fill="#ffffff"></path><path d="M0 375L53.3 347C106.7 319 213.3 263 320 264.7C426.7 266.3 533.3 325.7 640 351.8C746.7 378 853.3 371 906.7 367.5L960 364L960 0L906.7 0C853.3 0 746.7 0 640 0C533.3 0 426.7 0 320 0C213.3 0 106.7 0 53.3 0L0 0Z" fill="#e3eefe"></path><path d="M0 282L53.3 263.2C106.7 244.3 213.3 206.7 320 207.5C426.7 208.3 533.3 247.7 640 257.8C746.7 268 853.3 249 906.7 239.5L960 230L960 0L906.7 0C853.3 0 746.7 0 640 0C533.3 0 426.7 0 320 0C213.3 0 106.7 0 53.3 0L0 0Z" fill="#c5ddfc"></path><path d="M0 187L53.3 180.5C106.7 174 213.3 161 320 135.8C426.7 110.7 533.3 73.3 640 75.3C746.7 77.3 853.3 118.7 906.7 139.3L960 160L960 0L906.7 0C853.3 0 746.7 0 640 0C533.3 0 426.7 0 320 0C213.3 0 106.7 0 53.3 0L0 0Z" fill="#a5ccfb"></path></svg>