<svg id="visual" viewBox="0 0 960 540" width="960" height="540" xmlns="http://www.w3.org/2000/svg" xmlns:xlink="http://www.w3.org/1999/xlink" version="1.1"><rect x="0" y="0" width="960" height="540" fill="#fff"></rect><path d="M0 370L22.8 380.8C45.7 391.7 91.3 413.3 137 432.2C182.7 451 228.3 467 274 455.7C319.7 444.3 365.3 405.7 411.2 402C457 398.3 503 429.7 548.8 429C594.7 428.3 640.3 395.7 686 398.3C731.7 401 777.3 439 823 456.5C868.7 474 914.3 471 937.2 469.5L960 468L960 0L937.2 0C914.3 0 868.7 0 823 0C777.3 0 731.7 0 686 0C640.3 0 594.7 0 548.8 0C503 0 457 0 411.2 0C365.3 0 319.7 0 274 0C228.3 0 182.7 0 137 0C91.3 0 45.7 0 22.8 0L0 0Z" fill="#ffffff"></path><path d="M0 346L22.8 346.5C45.7 347 91.3 348 137 332.5C182.7 317 228.3 285 274 281.2C319.7 277.3 365.3 301.7 411.2 293.3C457 285 503 244 548.8 246.2C594.7 248.3 640.3 293.7 686 303.3C731.7 313 777.3 287 823 269.3C868.7 251.7 914.3 242.3 937.2 237.7L960 233L960 0L937.2 0C914.3 0 868.7 0 823 0C777.3 0 731.7 0 686 0C640.3 0 594.7 0 548.8 0C503 0 457 0 411.2 0C365.3 0 319.7 0 274 0C228.3 0 182.7 0 137 0C91.3 0 45.7 0 22.8 0L0 0Z" fill="#e3eefe"></path><path d="M0 230L22.8 238.5C45.7 247 91.3 264 137 265.3C182.7 266.7 228.3 252.3 274 227.8C319.7 203.3 365.3 168.7 411.2 154.3C457 140 503 146 548.8 168.2C594.7 190.3 640.3 228.7 686 231.7C731.7 234.7 777.3 202.3 823 202.7C868.7 203 914.3 236 937.2 252.5L960 269L960 0L937.2 0C914.3 0 868.7 0 823 0C777.3 0 731.7 0 686 0C640.3 0 594.7 0 548.8 0C503 0 457 0 411.2 0C365.3 0 319.7 0 274 0C228.3 0 182.7 0 137 0C91.3 0 45.7 0 22.8 0L0 0Z" fill="#c5ddfc"></path><path d="M0 159L22.8 138.5C45.7 118 91.3 77 137 76.2C182.7 75.3 228.3 114.7 274 121.8C319.7 129 365.3 104 411.2 93.2C457 82.3 503 85.7 548.8 99.7C594.7 113.7 640.3 138.3 686 139.8C731.7 141.3 777.3 119.7 823 112C868.7 104.3 914.3 110.7 937.2 113.8L960 117L960 0L937.2 0C914.3 0 868.7 0 823 0C777.3 0 731.7 0 686 0C640.3 0 594.7 0 548.8 0C503 0 457 0 411.2 0C365.3 0 319.7 0 274 0C228.3 0 182.7 0 137 0C91.3 0 45.7 0 22.8 0L0 0Z" fill="#a5ccfb"></path></svg>