<svg id="visual" viewBox="0 0 960 540" width="960" height="540" xmlns="http://www.w3.org/2000/svg" xmlns:xlink="http://www.w3.org/1999/xlink" version="1.1"><rect x="0" y="0" width="960" height="540" fill="#fff"></rect><path d="M0 222L22.8 228.5C45.7 235 91.3 248 137 259.3C182.7 270.7 228.3 280.3 274 273.5C319.7 266.7 365.3 243.3 411.2 241C457 238.7 503 257.3 548.8 256.8C594.7 256.3 640.3 236.7 686 238.3C731.7 240 777.3 263 823 273.5C868.7 284 914.3 282 937.2 281L960 280L960 0L937.2 0C914.3 0 868.7 0 823 0C777.3 0 731.7 0 686 0C640.3 0 594.7 0 548.8 0C503 0 457 0 411.2 0C365.3 0 319.7 0 274 0C228.3 0 182.7 0 137 0C91.3 0 45.7 0 22.8 0L0 0Z" fill="#ffffff"></path><path d="M0 207L22.8 207.3C45.7 207.7 91.3 208.3 137 199.2C182.7 190 228.3 171 274 168.7C319.7 166.3 365.3 180.7 411.2 175.5C457 170.3 503 145.7 548.8 147C594.7 148.3 640.3 175.7 686 181.5C731.7 187.3 777.3 171.7 823 161C868.7 150.3 914.3 144.7 937.2 141.8L960 139L960 0L937.2 0C914.3 0 868.7 0 823 0C777.3 0 731.7 0 686 0C640.3 0 594.7 0 548.8 0C503 0 457 0 411.2 0C365.3 0 319.7 0 274 0C228.3 0 182.7 0 137 0C91.3 0 45.7 0 22.8 0L0 0Z" fill="#e3eefe"></path><path d="M0 138L22.8 143C45.7 148 91.3 158 137 158.7C182.7 159.3 228.3 150.7 274 136C319.7 121.3 365.3 100.7 411.2 92.2C457 83.7 503 87.3 548.8 100.7C594.7 114 640.3 137 686 138.8C731.7 140.7 777.3 121.3 823 121.5C868.7 121.7 914.3 141.3 937.2 151.2L960 161L960 0L937.2 0C914.3 0 868.7 0 823 0C777.3 0 731.7 0 686 0C640.3 0 594.7 0 548.8 0C503 0 457 0 411.2 0C365.3 0 319.7 0 274 0C228.3 0 182.7 0 137 0C91.3 0 45.7 0 22.8 0L0 0Z" fill="#c5ddfc"></path><path d="M0 95L22.8 82.7C45.7 70.3 91.3 45.7 137 45.2C182.7 44.7 228.3 68.3 274 72.7C319.7 77 365.3 62 411.2 55.5C457 49 503 51 548.8 59.3C594.7 67.7 640.3 82.3 686 83.3C731.7 84.3 777.3 71.7 823 67.2C868.7 62.7 914.3 66.3 937.2 68.2L960 70L960 0L937.2 0C914.3 0 868.7 0 823 0C777.3 0 731.7 0 686 0C640.3 0 594.7 0 548.8 0C503 0 457 0 411.2 0C365.3 0 319.7 0 274 0C228.3 0 182.7 0 137 0C91.3 0 45.7 0 22.8 0L0 0Z" fill="#a5ccfb"></path></svg>