<svg id="visual" viewBox="0 0 960 540" width="960" height="540" xmlns="http://www.w3.org/2000/svg" xmlns:xlink="http://www.w3.org/1999/xlink" version="1.1"><rect x="0" y="0" width="960" height="540" fill="#fff"></rect><path d="M0 322L53.3 344.3C106.7 366.7 213.3 411.3 320 428C426.7 444.7 533.3 433.3 640 433.2C746.7 433 853.3 444 906.7 449.5L960 455L960 0L906.7 0C853.3 0 746.7 0 640 0C533.3 0 426.7 0 320 0C213.3 0 106.7 0 53.3 0L0 0Z" fill="#ffffff"></path><path d="M0 387L53.3 356C106.7 325 213.3 263 320 264C426.7 265 533.3 329 640 356.5C746.7 384 853.3 375 906.7 370.5L960 366L960 0L906.7 0C853.3 0 746.7 0 640 0C533.3 0 426.7 0 320 0C213.3 0 106.7 0 53.3 0L0 0Z" fill="#e3eefe"></path><path d="M0 121L53.3 118.8C106.7 116.7 213.3 112.3 320 122.7C426.7 133 533.3 158 640 185.8C746.7 213.7 853.3 244.3 906.7 259.7L960 275L960 0L906.7 0C853.3 0 746.7 0 640 0C533.3 0 426.7 0 320 0C213.3 0 106.7 0 53.3 0L0 0Z" fill="#c5ddfc"></path><path d="M0 81L53.3 86.3C106.7 91.7 213.3 102.3 320 93.7C426.7 85 533.3 57 640 49.8C746.7 42.7 853.3 56.3 906.7 63.2L960 70L960 0L906.7 0C853.3 0 746.7 0 640 0C533.3 0 426.7 0 320 0C213.3 0 106.7 0 53.3 0L0 0Z" fill="#a5ccfb"></path></svg>