<svg id="visual" viewBox="0 0 540 960" width="540" height="960" xmlns="http://www.w3.org/2000/svg" xmlns:xlink="http://www.w3.org/1999/xlink" version="1.1"><rect x="0" y="0" width="540" height="960" fill="#A5CCFB"></rect><path d="M0 551L12.8 555C25.7 559 51.3 567 77 558.2C102.7 549.3 128.3 523.7 154 517C179.7 510.3 205.3 522.7 231.2 521.7C257 520.7 283 506.3 308.8 519.5C334.7 532.7 360.3 573.3 386 582C411.7 590.7 437.3 567.3 463 539.5C488.7 511.7 514.3 479.3 527.2 463.2L540 447L540 961L527.2 961C514.3 961 488.7 961 463 961C437.3 961 411.7 961 386 961C360.3 961 334.7 961 308.8 961C283 961 257 961 231.2 961C205.3 961 179.7 961 154 961C128.3 961 102.7 961 77 961C51.3 961 25.7 961 12.8 961L0 961Z" fill="#a5ccfb"></path><path d="M0 624L12.8 624.3C25.7 624.7 51.3 625.3 77 635.7C102.7 646 128.3 666 154 657.5C179.7 649 205.3 612 231.2 598.2C257 584.3 283 593.7 308.8 603.7C334.7 613.7 360.3 624.3 386 626.8C411.7 629.3 437.3 623.7 463 620.5C488.7 617.3 514.3 616.7 527.2 616.3L540 616L540 961L527.2 961C514.3 961 488.7 961 463 961C437.3 961 411.7 961 386 961C360.3 961 334.7 961 308.8 961C283 961 257 961 231.2 961C205.3 961 179.7 961 154 961C128.3 961 102.7 961 77 961C51.3 961 25.7 961 12.8 961L0 961Z" fill="#bdd8fc"></path><path d="M0 674L12.8 678.8C25.7 683.7 51.3 693.3 77 687.5C102.7 681.7 128.3 660.3 154 649.2C179.7 638 205.3 637 231.2 636.5C257 636 283 636 308.8 655.3C334.7 674.7 360.3 713.3 386 718.8C411.7 724.3 437.3 696.7 463 677.5C488.7 658.3 514.3 647.7 527.2 642.3L540 637L540 961L527.2 961C514.3 961 488.7 961 463 961C437.3 961 411.7 961 386 961C360.3 961 334.7 961 308.8 961C283 961 257 961 231.2 961C205.3 961 179.7 961 154 961C128.3 961 102.7 961 77 961C51.3 961 25.7 961 12.8 961L0 961Z" fill="#d4e5fd"></path><path d="M0 733L12.8 743.7C25.7 754.3 51.3 775.7 77 782.7C102.7 789.7 128.3 782.3 154 776C179.7 769.7 205.3 764.3 231.2 767.7C257 771 283 783 308.8 785C334.7 787 360.3 779 386 782.5C411.7 786 437.3 801 463 805.3C488.7 809.7 514.3 803.3 527.2 800.2L540 797L540 961L527.2 961C514.3 961 488.7 961 463 961C437.3 961 411.7 961 386 961C360.3 961 334.7 961 308.8 961C283 961 257 961 231.2 961C205.3 961 179.7 961 154 961C128.3 961 102.7 961 77 961C51.3 961 25.7 961 12.8 961L0 961Z" fill="#eaf2fe"></path><path d="M0 894L12.8 890.2C25.7 886.3 51.3 878.7 77 879.2C102.7 879.7 128.3 888.3 154 893C179.7 897.7 205.3 898.3 231.2 900.5C257 902.7 283 906.3 308.8 906.2C334.7 906 360.3 902 386 903.2C411.7 904.3 437.3 910.7 463 910.7C488.7 910.7 514.3 904.3 527.2 901.2L540 898L540 961L527.2 961C514.3 961 488.7 961 463 961C437.3 961 411.7 961 386 961C360.3 961 334.7 961 308.8 961C283 961 257 961 231.2 961C205.3 961 179.7 961 154 961C128.3 961 102.7 961 77 961C51.3 961 25.7 961 12.8 961L0 961Z" fill="#ffffff"></path></svg>