<svg id="visual" viewBox="0 0 540 960" width="540" height="960" xmlns="http://www.w3.org/2000/svg" xmlns:xlink="http://www.w3.org/1999/xlink" version="1.1"><rect x="0" y="0" width="540" height="960" fill="#A5CCFB"></rect><path d="M0 502L12.8 493.7C25.7 485.3 51.3 468.7 77 442.2C102.7 415.7 128.3 379.3 154 360C179.7 340.7 205.3 338.3 231.2 349.2C257 360 283 384 308.8 390.7C334.7 397.3 360.3 386.7 386 380.8C411.7 375 437.3 374 463 384.5C488.7 395 514.3 417 527.2 428L540 439L540 0L527.2 0C514.3 0 488.7 0 463 0C437.3 0 411.7 0 386 0C360.3 0 334.7 0 308.8 0C283 0 257 0 231.2 0C205.3 0 179.7 0 154 0C128.3 0 102.7 0 77 0C51.3 0 25.7 0 12.8 0L0 0Z" fill="#a5ccfb"></path><path d="M0 359L12.8 355.5C25.7 352 51.3 345 77 355.2C102.7 365.3 128.3 392.7 154 393.7C179.7 394.7 205.3 369.3 231.2 354.2C257 339 283 334 308.8 337.5C334.7 341 360.3 353 386 367.8C411.7 382.7 437.3 400.3 463 400.7C488.7 401 514.3 384 527.2 375.5L540 367L540 0L527.2 0C514.3 0 488.7 0 463 0C437.3 0 411.7 0 386 0C360.3 0 334.7 0 308.8 0C283 0 257 0 231.2 0C205.3 0 179.7 0 154 0C128.3 0 102.7 0 77 0C51.3 0 25.7 0 12.8 0L0 0Z" fill="#bdd8fc"></path><path d="M0 234L12.8 239.5C25.7 245 51.3 256 77 258.3C102.7 260.7 128.3 254.3 154 244C179.7 233.7 205.3 219.3 231.2 230.7C257 242 283 279 308.8 299.2C334.7 319.3 360.3 322.7 386 315.5C411.7 308.3 437.3 290.7 463 273.2C488.7 255.7 514.3 238.3 527.2 229.7L540 221L540 0L527.2 0C514.3 0 488.7 0 463 0C437.3 0 411.7 0 386 0C360.3 0 334.7 0 308.8 0C283 0 257 0 231.2 0C205.3 0 179.7 0 154 0C128.3 0 102.7 0 77 0C51.3 0 25.7 0 12.8 0L0 0Z" fill="#d4e5fd"></path><path d="M0 173L12.8 183.5C25.7 194 51.3 215 77 209C102.7 203 128.3 170 154 150.2C179.7 130.3 205.3 123.7 231.2 134C257 144.3 283 171.7 308.8 177.7C334.7 183.7 360.3 168.3 386 160.5C411.7 152.7 437.3 152.3 463 154C488.7 155.7 514.3 159.3 527.2 161.2L540 163L540 0L527.2 0C514.3 0 488.7 0 463 0C437.3 0 411.7 0 386 0C360.3 0 334.7 0 308.8 0C283 0 257 0 231.2 0C205.3 0 179.7 0 154 0C128.3 0 102.7 0 77 0C51.3 0 25.7 0 12.8 0L0 0Z" fill="#eaf2fe"></path><path d="M0 101L12.8 103.5C25.7 106 51.3 111 77 106.2C102.7 101.3 128.3 86.7 154 78.2C179.7 69.7 205.3 67.3 231.2 72.8C257 78.3 283 91.7 308.8 96.5C334.7 101.3 360.3 97.7 386 92.5C411.7 87.3 437.3 80.7 463 86C488.7 91.3 514.3 108.7 527.2 117.3L540 126L540 0L527.2 0C514.3 0 488.7 0 463 0C437.3 0 411.7 0 386 0C360.3 0 334.7 0 308.8 0C283 0 257 0 231.2 0C205.3 0 179.7 0 154 0C128.3 0 102.7 0 77 0C51.3 0 25.7 0 12.8 0L0 0Z" fill="#ffffff"></path></svg>