<svg id="visual" viewBox="0 0 540 960" width="540" height="960" xmlns="http://www.w3.org/2000/svg" xmlns:xlink="http://www.w3.org/1999/xlink" version="1.1"><rect x="0" y="0" width="540" height="960" fill="#A5CCFB"></rect><path d="M0 483L12.8 459.3C25.7 435.7 51.3 388.3 77 373C102.7 357.7 128.3 374.3 154 384.3C179.7 394.3 205.3 397.7 231.2 398.5C257 399.3 283 397.7 308.8 405.7C334.7 413.7 360.3 431.3 386 431.3C411.7 431.3 437.3 413.7 463 416.5C488.7 419.3 514.3 442.7 527.2 454.3L540 466L540 0L527.2 0C514.3 0 488.7 0 463 0C437.3 0 411.7 0 386 0C360.3 0 334.7 0 308.8 0C283 0 257 0 231.2 0C205.3 0 179.7 0 154 0C128.3 0 102.7 0 77 0C51.3 0 25.7 0 12.8 0L0 0Z" fill="#a5ccfb"></path><path d="M0 258L12.8 266.7C25.7 275.3 51.3 292.7 77 312C102.7 331.3 128.3 352.7 154 352C179.7 351.3 205.3 328.7 231.2 309.8C257 291 283 276 308.8 292.2C334.7 308.3 360.3 355.7 386 362.7C411.7 369.7 437.3 336.3 463 336.7C488.7 337 514.3 371 527.2 388L540 405L540 0L527.2 0C514.3 0 488.7 0 463 0C437.3 0 411.7 0 386 0C360.3 0 334.7 0 308.8 0C283 0 257 0 231.2 0C205.3 0 179.7 0 154 0C128.3 0 102.7 0 77 0C51.3 0 25.7 0 12.8 0L0 0Z" fill="#bdd8fc"></path><path d="M0 243L12.8 250.5C25.7 258 51.3 273 77 279.7C102.7 286.3 128.3 284.7 154 278.7C179.7 272.7 205.3 262.3 231.2 249.3C257 236.3 283 220.7 308.8 232.3C334.7 244 360.3 283 386 293.7C411.7 304.3 437.3 286.7 463 277.7C488.7 268.7 514.3 268.3 527.2 268.2L540 268L540 0L527.2 0C514.3 0 488.7 0 463 0C437.3 0 411.7 0 386 0C360.3 0 334.7 0 308.8 0C283 0 257 0 231.2 0C205.3 0 179.7 0 154 0C128.3 0 102.7 0 77 0C51.3 0 25.7 0 12.8 0L0 0Z" fill="#d4e5fd"></path><path d="M0 206L12.8 204.2C25.7 202.3 51.3 198.7 77 202.8C102.7 207 128.3 219 154 205.8C179.7 192.7 205.3 154.3 231.2 146.5C257 138.7 283 161.3 308.8 178.3C334.7 195.3 360.3 206.7 386 209.3C411.7 212 437.3 206 463 195.2C488.7 184.3 514.3 168.7 527.2 160.8L540 153L540 0L527.2 0C514.3 0 488.7 0 463 0C437.3 0 411.7 0 386 0C360.3 0 334.7 0 308.8 0C283 0 257 0 231.2 0C205.3 0 179.7 0 154 0C128.3 0 102.7 0 77 0C51.3 0 25.7 0 12.8 0L0 0Z" fill="#eaf2fe"></path><path d="M0 97L12.8 92.7C25.7 88.3 51.3 79.7 77 72.5C102.7 65.3 128.3 59.7 154 69.5C179.7 79.3 205.3 104.7 231.2 115.2C257 125.7 283 121.3 308.8 116.7C334.7 112 360.3 107 386 108.7C411.7 110.3 437.3 118.7 463 123.5C488.7 128.3 514.3 129.7 527.2 130.3L540 131L540 0L527.2 0C514.3 0 488.7 0 463 0C437.3 0 411.7 0 386 0C360.3 0 334.7 0 308.8 0C283 0 257 0 231.2 0C205.3 0 179.7 0 154 0C128.3 0 102.7 0 77 0C51.3 0 25.7 0 12.8 0L0 0Z" fill="#ffffff"></path></svg>