<svg id="visual" viewBox="0 0 540 960" width="540" height="960" xmlns="http://www.w3.org/2000/svg" xmlns:xlink="http://www.w3.org/1999/xlink" version="1.1"><rect x="0" y="0" width="540" height="960" fill="#A5CCFB"></rect><path d="M0 456L12.8 464.3C25.7 472.7 51.3 489.3 77 515.8C102.7 542.3 128.3 578.7 154 598C179.7 617.3 205.3 619.7 231.2 608.8C257 598 283 574 308.8 567.3C334.7 560.7 360.3 571.3 386 577.2C411.7 583 437.3 584 463 573.5C488.7 563 514.3 541 527.2 530L540 519L540 961L527.2 961C514.3 961 488.7 961 463 961C437.3 961 411.7 961 386 961C360.3 961 334.7 961 308.8 961C283 961 257 961 231.2 961C205.3 961 179.7 961 154 961C128.3 961 102.7 961 77 961C51.3 961 25.7 961 12.8 961L0 961Z" fill="#a5ccfb"></path><path d="M0 599L12.8 602.5C25.7 606 51.3 613 77 602.8C102.7 592.7 128.3 565.3 154 564.3C179.7 563.3 205.3 588.7 231.2 603.8C257 619 283 624 308.8 620.5C334.7 617 360.3 605 386 590.2C411.7 575.3 437.3 557.7 463 557.3C488.7 557 514.3 574 527.2 582.5L540 591L540 961L527.2 961C514.3 961 488.7 961 463 961C437.3 961 411.7 961 386 961C360.3 961 334.7 961 308.8 961C283 961 257 961 231.2 961C205.3 961 179.7 961 154 961C128.3 961 102.7 961 77 961C51.3 961 25.7 961 12.8 961L0 961Z" fill="#bdd8fc"></path><path d="M0 724L12.8 718.5C25.7 713 51.3 702 77 699.7C102.7 697.3 128.3 703.7 154 714C179.7 724.3 205.3 738.7 231.2 727.3C257 716 283 679 308.8 658.8C334.7 638.7 360.3 635.3 386 642.5C411.7 649.7 437.3 667.3 463 684.8C488.7 702.3 514.3 719.7 527.2 728.3L540 737L540 961L527.2 961C514.3 961 488.7 961 463 961C437.3 961 411.7 961 386 961C360.3 961 334.7 961 308.8 961C283 961 257 961 231.2 961C205.3 961 179.7 961 154 961C128.3 961 102.7 961 77 961C51.3 961 25.7 961 12.8 961L0 961Z" fill="#d4e5fd"></path><path d="M0 785L12.8 774.5C25.7 764 51.3 743 77 749C102.7 755 128.3 788 154 807.8C179.7 827.7 205.3 834.3 231.2 824C257 813.7 283 786.3 308.8 780.3C334.7 774.3 360.3 789.7 386 797.5C411.7 805.3 437.3 805.7 463 804C488.7 802.3 514.3 798.7 527.2 796.8L540 795L540 961L527.2 961C514.3 961 488.7 961 463 961C437.3 961 411.7 961 386 961C360.3 961 334.7 961 308.8 961C283 961 257 961 231.2 961C205.3 961 179.7 961 154 961C128.3 961 102.7 961 77 961C51.3 961 25.7 961 12.8 961L0 961Z" fill="#eaf2fe"></path><path d="M0 857L12.8 854.5C25.7 852 51.3 847 77 851.8C102.7 856.7 128.3 871.3 154 879.8C179.7 888.3 205.3 890.7 231.2 885.2C257 879.7 283 866.3 308.8 861.5C334.7 856.7 360.3 860.3 386 865.5C411.7 870.7 437.3 877.3 463 872C488.7 866.7 514.3 849.3 527.2 840.7L540 832L540 961L527.2 961C514.3 961 488.7 961 463 961C437.3 961 411.7 961 386 961C360.3 961 334.7 961 308.8 961C283 961 257 961 231.2 961C205.3 961 179.7 961 154 961C128.3 961 102.7 961 77 961C51.3 961 25.7 961 12.8 961L0 961Z" fill="#ffffff"></path></svg>