<svg id="visual" viewBox="0 0 540 960" width="540" height="960" xmlns="http://www.w3.org/2000/svg" xmlns:xlink="http://www.w3.org/1999/xlink" version="1.1"><rect x="0" y="0" width="540" height="960" fill="#FFFFFF"></rect><path d="M0 456L12.8 458.8C25.7 461.7 51.3 467.3 77 476.5C102.7 485.7 128.3 498.3 154 492C179.7 485.7 205.3 460.3 231.2 430.7C257 401 283 367 308.8 379C334.7 391 360.3 449 386 466.7C411.7 484.3 437.3 461.7 463 446.3C488.7 431 514.3 423 527.2 419L540 415L540 0L527.2 0C514.3 0 488.7 0 463 0C437.3 0 411.7 0 386 0C360.3 0 334.7 0 308.8 0C283 0 257 0 231.2 0C205.3 0 179.7 0 154 0C128.3 0 102.7 0 77 0C51.3 0 25.7 0 12.8 0L0 0Z" fill="#ffffff"></path><path d="M0 363L12.8 363.3C25.7 363.7 51.3 364.3 77 367.3C102.7 370.3 128.3 375.7 154 366.2C179.7 356.7 205.3 332.3 231.2 338.5C257 344.7 283 381.3 308.8 392.3C334.7 403.3 360.3 388.7 386 387.3C411.7 386 437.3 398 463 397.7C488.7 397.3 514.3 384.7 527.2 378.3L540 372L540 0L527.2 0C514.3 0 488.7 0 463 0C437.3 0 411.7 0 386 0C360.3 0 334.7 0 308.8 0C283 0 257 0 231.2 0C205.3 0 179.7 0 154 0C128.3 0 102.7 0 77 0C51.3 0 25.7 0 12.8 0L0 0Z" fill="#eaf2fe"></path><path d="M0 241L12.8 241.5C25.7 242 51.3 243 77 241.3C102.7 239.7 128.3 235.3 154 244.7C179.7 254 205.3 277 231.2 285.2C257 293.3 283 286.7 308.8 278.7C334.7 270.7 360.3 261.3 386 246.5C411.7 231.7 437.3 211.3 463 215C488.7 218.7 514.3 246.3 527.2 260.2L540 274L540 0L527.2 0C514.3 0 488.7 0 463 0C437.3 0 411.7 0 386 0C360.3 0 334.7 0 308.8 0C283 0 257 0 231.2 0C205.3 0 179.7 0 154 0C128.3 0 102.7 0 77 0C51.3 0 25.7 0 12.8 0L0 0Z" fill="#d4e5fd"></path><path d="M0 230L12.8 228C25.7 226 51.3 222 77 213C102.7 204 128.3 190 154 183.5C179.7 177 205.3 178 231.2 172.5C257 167 283 155 308.8 147.8C334.7 140.7 360.3 138.3 386 141.8C411.7 145.3 437.3 154.7 463 152.7C488.7 150.7 514.3 137.3 527.2 130.7L540 124L540 0L527.2 0C514.3 0 488.7 0 463 0C437.3 0 411.7 0 386 0C360.3 0 334.7 0 308.8 0C283 0 257 0 231.2 0C205.3 0 179.7 0 154 0C128.3 0 102.7 0 77 0C51.3 0 25.7 0 12.8 0L0 0Z" fill="#bdd8fc"></path><path d="M0 44L12.8 47C25.7 50 51.3 56 77 58.2C102.7 60.3 128.3 58.7 154 68.7C179.7 78.7 205.3 100.3 231.2 98.5C257 96.7 283 71.3 308.8 65.3C334.7 59.3 360.3 72.7 386 82.8C411.7 93 437.3 100 463 106.8C488.7 113.7 514.3 120.3 527.2 123.7L540 127L540 0L527.2 0C514.3 0 488.7 0 463 0C437.3 0 411.7 0 386 0C360.3 0 334.7 0 308.8 0C283 0 257 0 231.2 0C205.3 0 179.7 0 154 0C128.3 0 102.7 0 77 0C51.3 0 25.7 0 12.8 0L0 0Z" fill="#a5ccfb"></path></svg>