<svg id="visual" viewBox="0 0 540 960" width="540" height="960" xmlns="http://www.w3.org/2000/svg" xmlns:xlink="http://www.w3.org/1999/xlink" version="1.1"><rect x="0" y="0" width="540" height="960" fill="#FFFFFF"></rect><path d="M0 560L12.8 569.5C25.7 579 51.3 598 77 595.3C102.7 592.7 128.3 568.3 154 577.7C179.7 587 205.3 630 231.2 644.7C257 659.3 283 645.7 308.8 632.3C334.7 619 360.3 606 386 595.5C411.7 585 437.3 577 463 586.2C488.7 595.3 514.3 621.7 527.2 634.8L540 648L540 961L527.2 961C514.3 961 488.7 961 463 961C437.3 961 411.7 961 386 961C360.3 961 334.7 961 308.8 961C283 961 257 961 231.2 961C205.3 961 179.7 961 154 961C128.3 961 102.7 961 77 961C51.3 961 25.7 961 12.8 961L0 961Z" fill="#ffffff"></path><path d="M0 741L12.8 724.8C25.7 708.7 51.3 676.3 77 659C102.7 641.7 128.3 639.3 154 634.8C179.7 630.3 205.3 623.7 231.2 639C257 654.3 283 691.7 308.8 699C334.7 706.3 360.3 683.7 386 674.8C411.7 666 437.3 671 463 682.7C488.7 694.3 514.3 712.7 527.2 721.8L540 731L540 961L527.2 961C514.3 961 488.7 961 463 961C437.3 961 411.7 961 386 961C360.3 961 334.7 961 308.8 961C283 961 257 961 231.2 961C205.3 961 179.7 961 154 961C128.3 961 102.7 961 77 961C51.3 961 25.7 961 12.8 961L0 961Z" fill="#eaf2fe"></path><path d="M0 742L12.8 751.2C25.7 760.3 51.3 778.7 77 786.3C102.7 794 128.3 791 154 781.2C179.7 771.3 205.3 754.7 231.2 740.3C257 726 283 714 308.8 722.5C334.7 731 360.3 760 386 776.5C411.7 793 437.3 797 463 796C488.7 795 514.3 789 527.2 786L540 783L540 961L527.2 961C514.3 961 488.7 961 463 961C437.3 961 411.7 961 386 961C360.3 961 334.7 961 308.8 961C283 961 257 961 231.2 961C205.3 961 179.7 961 154 961C128.3 961 102.7 961 77 961C51.3 961 25.7 961 12.8 961L0 961Z" fill="#d4e5fd"></path><path d="M0 837L12.8 835.8C25.7 834.7 51.3 832.3 77 825.7C102.7 819 128.3 808 154 811.8C179.7 815.7 205.3 834.3 231.2 840C257 845.7 283 838.3 308.8 838C334.7 837.7 360.3 844.3 386 842.5C411.7 840.7 437.3 830.3 463 824.8C488.7 819.3 514.3 818.7 527.2 818.3L540 818L540 961L527.2 961C514.3 961 488.7 961 463 961C437.3 961 411.7 961 386 961C360.3 961 334.7 961 308.8 961C283 961 257 961 231.2 961C205.3 961 179.7 961 154 961C128.3 961 102.7 961 77 961C51.3 961 25.7 961 12.8 961L0 961Z" fill="#bdd8fc"></path><path d="M0 850L12.8 861.5C25.7 873 51.3 896 77 905.8C102.7 915.7 128.3 912.3 154 900.8C179.7 889.3 205.3 869.7 231.2 862.3C257 855 283 860 308.8 865.5C334.7 871 360.3 877 386 879.3C411.7 881.7 437.3 880.3 463 877.8C488.7 875.3 514.3 871.7 527.2 869.8L540 868L540 961L527.2 961C514.3 961 488.7 961 463 961C437.3 961 411.7 961 386 961C360.3 961 334.7 961 308.8 961C283 961 257 961 231.2 961C205.3 961 179.7 961 154 961C128.3 961 102.7 961 77 961C51.3 961 25.7 961 12.8 961L0 961Z" fill="#a5ccfb"></path></svg>