<svg id="visual" viewBox="0 0 540 960" width="540" height="960" xmlns="http://www.w3.org/2000/svg" xmlns:xlink="http://www.w3.org/1999/xlink" version="1.1"><rect x="0" y="0" width="540" height="960" fill="#FFFFFF"></rect><path d="M0 574L12.8 584C25.7 594 51.3 614 77 625C102.7 636 128.3 638 154 645.7C179.7 653.3 205.3 666.7 231.2 650C257 633.3 283 586.7 308.8 565.7C334.7 544.7 360.3 549.3 386 559.3C411.7 569.3 437.3 584.7 463 609C488.7 633.3 514.3 666.7 527.2 683.3L540 700L540 961L527.2 961C514.3 961 488.7 961 463 961C437.3 961 411.7 961 386 961C360.3 961 334.7 961 308.8 961C283 961 257 961 231.2 961C205.3 961 179.7 961 154 961C128.3 961 102.7 961 77 961C51.3 961 25.7 961 12.8 961L0 961Z" fill="#ffffff"></path><path d="M0 646L12.8 650.8C25.7 655.7 51.3 665.3 77 668.3C102.7 671.3 128.3 667.7 154 674.3C179.7 681 205.3 698 231.2 701.8C257 705.7 283 696.3 308.8 699.7C334.7 703 360.3 719 386 716C411.7 713 437.3 691 463 677C488.7 663 514.3 657 527.2 654L540 651L540 961L527.2 961C514.3 961 488.7 961 463 961C437.3 961 411.7 961 386 961C360.3 961 334.7 961 308.8 961C283 961 257 961 231.2 961C205.3 961 179.7 961 154 961C128.3 961 102.7 961 77 961C51.3 961 25.7 961 12.8 961L0 961Z" fill="#e3eefe"></path><path d="M0 806L12.8 802.7C25.7 799.3 51.3 792.7 77 796.5C102.7 800.3 128.3 814.7 154 815.5C179.7 816.3 205.3 803.7 231.2 806.5C257 809.3 283 827.7 308.8 834.7C334.7 841.7 360.3 837.3 386 835.8C411.7 834.3 437.3 835.7 463 834C488.7 832.3 514.3 827.7 527.2 825.3L540 823L540 961L527.2 961C514.3 961 488.7 961 463 961C437.3 961 411.7 961 386 961C360.3 961 334.7 961 308.8 961C283 961 257 961 231.2 961C205.3 961 179.7 961 154 961C128.3 961 102.7 961 77 961C51.3 961 25.7 961 12.8 961L0 961Z" fill="#c5ddfc"></path><path d="M0 822L12.8 836.5C25.7 851 51.3 880 77 893.5C102.7 907 128.3 905 154 897C179.7 889 205.3 875 231.2 860.7C257 846.3 283 831.7 308.8 824C334.7 816.3 360.3 815.7 386 818.7C411.7 821.7 437.3 828.3 463 829C488.7 829.7 514.3 824.3 527.2 821.7L540 819L540 961L527.2 961C514.3 961 488.7 961 463 961C437.3 961 411.7 961 386 961C360.3 961 334.7 961 308.8 961C283 961 257 961 231.2 961C205.3 961 179.7 961 154 961C128.3 961 102.7 961 77 961C51.3 961 25.7 961 12.8 961L0 961Z" fill="#a5ccfb"></path></svg>